<?xml version="1.0" encoding="utf-8"?>
<!-- Generator: Adobe Illustrator 19.0.0, SVG Export Plug-In . SVG Version: 6.00 Build 0)  -->
<svg version="1.1" id="Layer_1" xmlns="http://www.w3.org/2000/svg" xmlns:xlink="http://www.w3.org/1999/xlink" x="0px" y="0px"
	 viewBox="-174 248 250 105" style="enable-background:new -174 248 250 105;" xml:space="preserve">
<style type="text/css">
	.st0{fill:#FFFFFF;}
</style>
<g>
	<path class="st0" d="M-76.4,340.6c-6.4,0-10.5-5.7-13.9-10.6l-18.6-28.5l-16.6,20.3l8.4,13.4c1.7,2.5,0.9,5.5-2,5.5
		c-0.8,0-1.4,0.7-1.4,1.5v5.4h41.8l5.7-6.9L-76.4,340.6L-76.4,340.6z"/>
	<path class="st0" d="M-136.4,340.6h-2.4c-5,0-5.8-5.1-2.1-9.2l56.6-69H-113v3.1c0,0.8,0.6,1.5,1.4,1.5h1.5c5,0,5.8,5.2,2.1,9.2
		l-9.7,11.8l-10.1-15.5c-1.7-2.5-0.9-5.5,2-5.5c0.8,0,1.4-0.7,1.4-1.5v-3.1h-38.9l-3.8,4.6c7.1,0,11.6,7.4,13.8,10.6l19,30.4
		l-32.4,39.5h31.5v-5.4C-135,341.3-135.7,340.6-136.4,340.6z"/>
</g>
<g>
	<path class="st0" d="M-55.4,328.9V279h9.5v19.9h19.2V279h9.5v49.9h-9.5v-21.4h-19.2v21.4H-55.4z"/>
	<path class="st0" d="M-7.7,279h18.5c10,0,16.4,3.3,16.9,12.2c0,5.2-2.1,9.2-7.6,11.3c6.5,2.6,8.7,5.6,8.7,13.2
		c0,7.7-5.5,13.1-18.2,13.1H-7.7V279z M1.8,298.9h9.5c4.6,0,6.8-2.6,6.8-6.1c0-3.5-2.3-6.1-6.8-6.1H1.8V298.9z M1.8,321.1h9.5
		c5.5,0,7.9-2.5,7.9-7.3c0-4.8-2.4-7.3-7.9-7.3H1.8V321.1z"/>
	<path class="st0" d="M33.5,279h10.4l7.5,15.4l7.5-15.4h10.4l-12.6,24.3L70,328.9H59.6l-8.3-16.9L43,328.9H32.7l13.5-25.6L33.5,279z
		"/>
</g>
</svg>
