<svg style="width:200px;height:200px" xmlns="http://www.w3.org/2000/svg" xmlns:xlink="http://www.w3.org/1999/xlink" x="0px" y="0px" viewBox="0 0 150 150" xml:space="preserve"><filter xmlns="http://www.w3.org/2000/svg" id="dropshadow" height="130%"><feGaussianBlur in="SourceAlpha" stdDeviation="3"></feGaussianBlur><feOffset dx="2" dy="2" result="offsetblur"></feOffset><feMerge><feMergeNode></feMergeNode><feMergeNode in="SourceGraphic"></feMergeNode></feMerge></filter><g transform="scale(1)"><path d="M75.2,13.3c-1.1,0-2.3,0.2-3.1,0.7L23.8,41.7c-1.6,0.9-3.1,3.5-3.1,5.3l-0.2,55.6 c0,1.9,1.5,4.4,3.1,5.3l48.1,28c1.6,0.9,4.5,0.9,6.2,0l48.3-27.7c1.6-0.9,3.1-3.5,3.1-5.3l0.2-55.6c0-1.9-1.5-4.4-3.1-5.3L78.3,14 C77.5,13.6,76.3,13.3,75.2,13.3z" style="fill:white"></path><path d="M74.8,141.7c-2,0-4-0.5-5.6-1.4l-48.1-28c-3.1-1.8-5.6-6.1-5.6-9.7L15.7,47c0-3.6,2.5-7.9,5.6-9.6L69.6,9.7 c3.2-1.8,8-1.8,11.2,0l48.1,28c3.1,1.8,5.6,6.1,5.5,9.7l-0.2,55.6c0,3.6-2.5,7.9-5.6,9.6l-48.3,27.7 C78.8,141.2,76.8,141.7,74.8,141.7z M75.2,13.3c-1.1,0-2.3,0.2-3.1,0.7L23.8,41.7c-1.6,0.9-3.1,3.5-3.1,5.3l-0.2,55.6 c0,1.9,1.5,4.4,3.1,5.3l48.1,28c1.6,0.9,4.5,0.9,6.2,0l48.3-27.7c1.6-0.9,3.1-3.5,3.1-5.3l0.2-55.6c0-1.9-1.5-4.4-3.1-5.3L78.3,14 C77.5,13.6,76.3,13.3,75.2,13.3z" style="fill:white;filter:url(#dropshadow);"></path></g></svg>